<?xml version="1.0" encoding="utf-8" standalone="no"?><!DOCTYPE svg PUBLIC "-//W3C//DTD SVG 1.1//EN" "http://www.w3.org/Graphics/SVG/1.1/DTD/svg11.dtd"><svg width="735px" height="275px" version="1.1" xmlns="http://www.w3.org/2000/svg" xmlns:xlink="http://www.w3.org/1999/xlink"><desc /><defs><linearGradient id="fs1" x1="0.999999582767487px" y1="-3.34622574094112E-09px" x2="0.999999403953552px" y2="0.99999988079071px"><stop offset="0%" stop-color="#FFFFFF" stop-opacity="1" /><stop offset="100%" stop-color="#FFFFFF" stop-opacity="1" /></linearGradient><linearGradient id="fs2" x1="0.499999642372131px" y1="-0.500000238418579px" x2="1.49999928474426px" y2="0.499999403953552px"><stop offset="0%" stop-color="#FFFFFF" stop-opacity="1" /><stop offset="100%" stop-color="#EBEBEB" stop-opacity="1" /></linearGradient><linearGradient id="fs3" x1="0.499997735023499px" y1="-0.500000655651093px" x2="1.49999797344208px" y2="0.499998301267624px"><stop offset="0%" stop-color="#FFFFFF" stop-opacity="1" /><stop offset="100%" stop-color="#EBEBEB" stop-opacity="1" /></linearGradient><linearGradient id="fs4" x1="0.499997735023499px" y1="-0.500000715255737px" x2="1.49999701976776px" y2="0.499998778104782px"><stop offset="0%" stop-color="#FFFFFF" stop-opacity="1" /><stop offset="100%" stop-color="#EBEBEB" stop-opacity="1" /></linearGradient><linearGradient id="fs5" x1="0.499995440244675px" y1="-0.500000715255737px" x2="1.49999511241913px" y2="0.49999925494194px"><stop offset="0%" stop-color="#FFFFFF" stop-opacity="1" /><stop offset="100%" stop-color="#EBEBEB" stop-opacity="1" /></linearGradient><linearGradient id="fs6" x1="0.499997079372406px" y1="-0.500000655651093px" x2="1.49999678134918px" y2="0.49999862909317px"><stop offset="0%" stop-color="#FFFFFF" stop-opacity="1" /><stop offset="100%" stop-color="#EBEBEB" stop-opacity="1" /></linearGradient><linearGradient id="fs7" x1="0.4999960064888px" y1="-0.500004053115845px" x2="1.49999558925629px" y2="0.49999526143074px"><stop offset="0%" stop-color="#FFFFFF" stop-opacity="1" /><stop offset="100%" stop-color="#EBEBEB" stop-opacity="1" /></linearGradient><linearGradient id="fs8" x1="0.499993175268173px" y1="-0.50000125169754px" x2="1.49999284744263px" y2="0.499997526407242px"><stop offset="0%" stop-color="#FFFFFF" stop-opacity="1" /><stop offset="100%" stop-color="#EBEBEB" stop-opacity="1" /></linearGradient><linearGradient id="fs9" x1="0.499988317489624px" y1="-0.500003457069397px" x2="1.49998772144318px" y2="0.499995559453964px"><stop offset="0%" stop-color="#FFFFFF" stop-opacity="1" /><stop offset="100%" stop-color="#EBEBEB" stop-opacity="1" /></linearGradient><linearGradient id="fs10" x1="0.499983131885529px" y1="-0.500002443790436px" x2="1.49998247623444px" y2="0.499997526407242px"><stop offset="0%" stop-color="#FFFFFF" stop-opacity="1" /><stop offset="100%" stop-color="#EBEBEB" stop-opacity="1" /></linearGradient></defs><rect x="-10px" y="-10px" width="745px" height="285px" fill="url(#fs1)" /><g clip-path="url(#)" transform="matrix(1 0 0 1 0 0)"><line x1="2px" y1="4px" x2="2px" y2="4px" stroke="#000000" stroke-width="1px" stroke-dashoffset="0" stroke-linejoin="round" stroke-miterlimit="10" /></g><g clip-path="url(#)" transform="matrix(1 0 0 1 0 0)" /><g clip-path="url(#)" transform="matrix(1 0 0 1 0 0)" /><g clip-path="url(#)" transform="matrix(1 0 0 1 0 0)"><rect x="15px" y="39px" width="168px" height="45px" fill="url(#fs2)" /><rect x="15px" y="39px" width="168px" height="45px" fill="none" stroke="#000000" stroke-width="1px" stroke-dashoffset="0" stroke-linejoin="round" stroke-miterlimit="10" /><text x="28px" y="68.0006256103516px" font-family="Verdana" font-size="8.639999pt" text-decoration="underline" fill="#000000">energy_consumption.erl</text></g><g clip-path="url(#)" transform="matrix(1 0 0 1 0 0)" /><g clip-path="url(#)" transform="matrix(1 0 0 1 0 0)"><rect x="32px" y="220px" width="135px" height="45px" fill="url(#fs3)" /><rect x="32px" y="220px" width="135px" height="45px" fill="none" stroke="#000000" stroke-width="1px" stroke-dashoffset="0" stroke-linejoin="round" stroke-miterlimit="10" /><text x="66px" y="249.000625610352px" font-family="Verdana" font-size="8.639999pt" text-decoration="underline" fill="#000000">rapl-read.c</text></g><g clip-path="url(#)" transform="matrix(1 0 0 1 0 0)" /><g clip-path="url(#)" transform="matrix(1 0 0 1 0 0)"><ellipse cx="315px" cy="38.5px" rx="47px" ry="15.5px" fill="url(#fs4)" /><ellipse cx="315px" cy="38.5px" rx="47px" ry="15.5px" fill="none" stroke="#000000" stroke-width="1px" stroke-dashoffset="0" stroke-linejoin="round" stroke-miterlimit="10" /><text x="288px" y="45.0006217956543px" font-family="Verdana" font-size="8.639999pt" fill="#000000">text files</text></g><g clip-path="url(#)" transform="matrix(1 0 0 1 0 0)" /><g clip-path="url(#)" transform="matrix(1 0 0 1 0 0)"><ellipse cx="315px" cy="83.5px" rx="47px" ry="15.5px" fill="url(#fs5)" /><ellipse cx="315px" cy="83.5px" rx="47px" ry="15.5px" fill="none" stroke="#000000" stroke-width="1px" stroke-dashoffset="0" stroke-linejoin="round" stroke-miterlimit="10" /><text x="287px" y="90.0006256103516px" font-family="Verdana" font-size="8.639999pt" fill="#000000">dets files</text></g><g clip-path="url(#)" transform="matrix(1 0 0 1 0 0)" /><g clip-path="url(#)" transform="matrix(1 0 0 1 0 0)"><rect x="447px" y="39px" width="168px" height="45px" fill="url(#fs6)" /><rect x="447px" y="39px" width="168px" height="45px" fill="none" stroke="#000000" stroke-width="1px" stroke-dashoffset="0" stroke-linejoin="round" stroke-miterlimit="10" /><text x="490px" y="68.0006256103516px" font-family="Verdana" font-size="8.639999pt" text-decoration="underline" fill="#000000">Python script</text></g><g clip-path="url(#)" transform="matrix(1 0 0 1 0 0)" /><g clip-path="url(#)" transform="matrix(1 0 0 1 0 0)"><rect x="447px" y="220px" width="168px" height="45px" fill="url(#fs7)" /><rect x="447px" y="220px" width="168px" height="45px" fill="none" stroke="#000000" stroke-width="1px" stroke-dashoffset="0" stroke-linejoin="round" stroke-miterlimit="10" /><text x="483px" y="249.000625610352px" font-family="Verdana" font-size="8.639999pt" text-decoration="underline" fill="#000000">LaTeX document</text></g><g clip-path="url(#)" transform="matrix(1 0 0 1 0 0)" /><g clip-path="url(#)" transform="matrix(1 0 0 1 0 0)"><ellipse cx="384px" cy="151.5px" rx="47px" ry="15.5px" fill="url(#fs8)" /><ellipse cx="384px" cy="151.5px" rx="47px" ry="15.5px" fill="none" stroke="#000000" stroke-width="1px" stroke-dashoffset="0" stroke-linejoin="round" stroke-miterlimit="10" /><text x="353px" y="151.000625610352px" font-family="Verdana" font-size="8.639999pt" fill="#000000">matplotlib </text><text x="363px" y="165.000625610352px" font-family="Verdana" font-size="8.639999pt" fill="#000000">figures</text></g><g clip-path="url(#)" transform="matrix(1 0 0 1 0 0)" /><g clip-path="url(#)" transform="matrix(1 0 0 1 0 0)"><ellipse cx="531px" cy="151.5px" rx="47px" ry="15.5px" fill="url(#fs9)" /><ellipse cx="531px" cy="151.5px" rx="47px" ry="15.5px" fill="none" stroke="#000000" stroke-width="1px" stroke-dashoffset="0" stroke-linejoin="round" stroke-miterlimit="10" /><text x="507px" y="158.000625610352px" font-family="Verdana" font-size="8.639999pt" fill="#000000">.tex file</text></g><g clip-path="url(#)" transform="matrix(1 0 0 1 0 0)" /><g clip-path="url(#)" transform="matrix(1 0 0 1 0 0)"><ellipse cx="678px" cy="151.5px" rx="47px" ry="15.5px" fill="url(#fs10)" /><ellipse cx="678px" cy="151.5px" rx="47px" ry="15.5px" fill="none" stroke="#000000" stroke-width="1px" stroke-dashoffset="0" stroke-linejoin="round" stroke-miterlimit="10" /><text x="653px" y="158.000625610352px" font-family="Verdana" font-size="8.639999pt" fill="#000000">data file</text></g><g clip-path="url(#)" transform="matrix(1 0 0 1 0 0)" /><g clip-path="url(#)" transform="matrix(1 0 0 1 0 0)"><polyline points="531,84 678,136 " fill="none" stroke="#000000" stroke-width="1px" stroke-dashoffset="0" stroke-linejoin="round" stroke-miterlimit="10" /><line x1="678px" y1="136px" x2="664px" y2="122px" stroke="#000000" stroke-width="1px" stroke-dashoffset="0" stroke-linejoin="round" stroke-miterlimit="10" /><line x1="678px" y1="136px" x2="658px" y2="138px" stroke="#000000" stroke-width="1px" stroke-dashoffset="0" stroke-linejoin="round" stroke-miterlimit="10" /></g><g clip-path="url(#)" transform="matrix(1 0 0 1 0 0)" /><g clip-path="url(#)" transform="matrix(1 0 0 1 0 0)"><polyline points="55,84 55,220 " fill="none" stroke="#000000" stroke-width="1px" stroke-dashoffset="0" stroke-linejoin="round" stroke-miterlimit="10" /><line x1="55px" y1="220px" x2="63px" y2="202px" stroke="#000000" stroke-width="1px" stroke-dashoffset="0" stroke-linejoin="round" stroke-miterlimit="10" /><line x1="55px" y1="220px" x2="47px" y2="202px" stroke="#000000" stroke-width="1px" stroke-dashoffset="0" stroke-linejoin="round" stroke-miterlimit="10" /><text x="5px" y="160.024993896484px" font-family="Segoe UI" font-size="9.599999pt" fill="#000000">spawn</text></g><g clip-path="url(#)" transform="matrix(1 0 0 1 0 0)" /><g clip-path="url(#)" transform="matrix(1 0 0 1 0 0)"><polyline points="143,220 143,84 " fill="none" stroke="#000000" stroke-width="1px" stroke-dasharray="5,4" stroke-dashoffset="0" stroke-linejoin="miter" stroke-miterlimit="10" /><polyline points="137,103 143,84 149,103 " fill="none" stroke="#000000" stroke-width="1px" stroke-dashoffset="0" stroke-linejoin="round" stroke-miterlimit="10" /><text x="144px" y="163.024993896484px" font-family="Segoe UI" font-size="9.599999pt" fill="#000000">measured values</text></g><g clip-path="url(#)" transform="matrix(1 0 0 1 0 0)" /><g clip-path="url(#)" transform="matrix(1 0 0 1 0 0)"><polyline points="183,61 268,84 " fill="none" stroke="#000000" stroke-width="1px" stroke-dashoffset="0" stroke-linejoin="round" stroke-miterlimit="10" /><line x1="268px" y1="84px" x2="253px" y2="71px" stroke="#000000" stroke-width="1px" stroke-dashoffset="0" stroke-linejoin="round" stroke-miterlimit="10" /><line x1="268px" y1="84px" x2="248px" y2="87px" stroke="#000000" stroke-width="1px" stroke-dashoffset="0" stroke-linejoin="round" stroke-miterlimit="10" /></g><g clip-path="url(#)" transform="matrix(1 0 0 1 0 0)" /><g clip-path="url(#)" transform="matrix(1 0 0 1 0 0)"><polyline points="183,61 268,39 " fill="none" stroke="#000000" stroke-width="1px" stroke-dashoffset="0" stroke-linejoin="round" stroke-miterlimit="10" /><line x1="268px" y1="39px" x2="248px" y2="35px" stroke="#000000" stroke-width="1px" stroke-dashoffset="0" stroke-linejoin="round" stroke-miterlimit="10" /><line x1="268px" y1="39px" x2="253px" y2="52px" stroke="#000000" stroke-width="1px" stroke-dashoffset="0" stroke-linejoin="round" stroke-miterlimit="10" /><text x="222px" y="66.0249938964844px" font-family="Segoe UI" font-size="9.599999pt" fill="#000000">export</text></g><g clip-path="url(#)" transform="matrix(1 0 0 1 0 0)" /><g clip-path="url(#)" transform="matrix(1 0 0 1 0 0)"><polyline points="447,61 362,39 " fill="none" stroke="#000000" stroke-width="1px" stroke-dashoffset="0" stroke-linejoin="round" stroke-miterlimit="10" /><line x1="362px" y1="39px" x2="377px" y2="52px" stroke="#000000" stroke-width="1px" stroke-dashoffset="0" stroke-linejoin="round" stroke-miterlimit="10" /><line x1="362px" y1="39px" x2="382px" y2="35px" stroke="#000000" stroke-width="1px" stroke-dashoffset="0" stroke-linejoin="round" stroke-miterlimit="10" /><text x="386px" y="41.0249977111816px" font-family="Segoe UI" font-size="9.599999pt" fill="#000000">import</text></g><g clip-path="url(#)" transform="matrix(1 0 0 1 0 0)" /><g clip-path="url(#)" transform="matrix(1 0 0 1 0 0)"><polyline points="479,39 479,5 584,5 584,39 " fill="none" stroke="#000000" stroke-width="1px" stroke-dasharray="5,4" stroke-dashoffset="0" stroke-linejoin="miter" stroke-miterlimit="10" /><polyline points="590,20 584,39 578,20 " fill="none" stroke="#000000" stroke-width="1px" stroke-dashoffset="0" stroke-linejoin="round" stroke-miterlimit="10" /><text x="511px" y="28.0249977111816px" font-family="Segoe UI" font-size="9.599999pt" fill="#000000">process</text></g><g clip-path="url(#)" transform="matrix(1 0 0 1 0 0)" /><g clip-path="url(#)" transform="matrix(1 0 0 1 0 0)"><polyline points="531,84 384,136 " fill="none" stroke="#000000" stroke-width="1px" stroke-dashoffset="0" stroke-linejoin="round" stroke-miterlimit="10" /><line x1="384px" y1="136px" x2="404px" y2="138px" stroke="#000000" stroke-width="1px" stroke-dashoffset="0" stroke-linejoin="round" stroke-miterlimit="10" /><line x1="384px" y1="136px" x2="398px" y2="122px" stroke="#000000" stroke-width="1px" stroke-dashoffset="0" stroke-linejoin="round" stroke-miterlimit="10" /><text x="411px" y="112.024993896484px" font-family="Segoe UI" font-size="9.599999pt" fill="#000000">draw</text></g><g clip-path="url(#)" transform="matrix(1 0 0 1 0 0)" /><g clip-path="url(#)" transform="matrix(1 0 0 1 0 0)"><polyline points="531,84 531,136 " fill="none" stroke="#000000" stroke-width="1px" stroke-dashoffset="0" stroke-linejoin="round" stroke-miterlimit="10" /><line x1="531px" y1="136px" x2="539px" y2="118px" stroke="#000000" stroke-width="1px" stroke-dashoffset="0" stroke-linejoin="round" stroke-miterlimit="10" /><line x1="531px" y1="136px" x2="523px" y2="118px" stroke="#000000" stroke-width="1px" stroke-dashoffset="0" stroke-linejoin="round" stroke-miterlimit="10" /><text x="532px" y="115.024993896484px" font-family="Segoe UI" font-size="9.599999pt" fill="#000000">create</text></g><g clip-path="url(#)" transform="matrix(1 0 0 1 0 0)" /><g clip-path="url(#)" transform="matrix(1 0 0 1 0 0)"><polyline points="531,220 531,167 " fill="none" stroke="#000000" stroke-width="1px" stroke-dashoffset="0" stroke-linejoin="round" stroke-miterlimit="10" /><line x1="531px" y1="167px" x2="523px" y2="185px" stroke="#000000" stroke-width="1px" stroke-dashoffset="0" stroke-linejoin="round" stroke-miterlimit="10" /><line x1="531px" y1="167px" x2="539px" y2="185px" stroke="#000000" stroke-width="1px" stroke-dashoffset="0" stroke-linejoin="round" stroke-miterlimit="10" /><text x="537px" y="206.024993896484px" font-family="Segoe UI" font-size="9.599999pt" fill="#000000">import</text></g><g clip-path="url(#)" transform="matrix(1 0 0 1 0 0)" /><g clip-path="url(#)" transform="matrix(1 0 0 1 0 0)"><polyline points="578,152 631,152 " fill="none" stroke="#000000" stroke-width="1px" stroke-dashoffset="0" stroke-linejoin="round" stroke-miterlimit="10" /><line x1="631px" y1="152px" x2="613px" y2="144px" stroke="#000000" stroke-width="1px" stroke-dashoffset="0" stroke-linejoin="round" stroke-miterlimit="10" /><line x1="631px" y1="152px" x2="613px" y2="160px" stroke="#000000" stroke-width="1px" stroke-dashoffset="0" stroke-linejoin="round" stroke-miterlimit="10" /><text x="586px" y="149.024993896484px" font-family="Segoe UI" font-size="9.599999pt" fill="#000000">use</text></g><g clip-path="url(#)" transform="matrix(1 0 0 1 0 0)" /></svg>